<svg width="124" height="83" viewBox="0 0 124 83" fill="none" xmlns="http://www.w3.org/2000/svg">
<g clip-path="url(#clip0_2022_870)">
<path d="M0 0H124V83H0V0Z" fill="white"/>
<path fill-rule="evenodd" clip-rule="evenodd" d="M18.9297 25.1411L30.3935 7.87606L33.4103 9.89536L21.9465 27.1604L18.9297 25.1411ZM23.2286 28.0186L34.6924 10.7536L37.7092 12.7729L26.2454 30.0379L23.2286 28.0186ZM27.5275 30.8961L38.9913 13.6311L42.0081 15.6504L30.5443 32.9154L27.5275 30.8961ZM81.9807 67.3445L93.4444 50.0794L96.4612 52.0987L84.9975 69.3638L81.9807 67.3445ZM86.2796 70.222L97.7434 52.9569L100.76 54.9762L89.2964 72.2413L86.2796 70.222ZM105.059 57.8537L93.5953 75.1188L90.5785 73.0995L102.042 55.8344L105.059 57.8537Z" fill="black"/>
<path fill-rule="evenodd" clip-rule="evenodd" d="M99.8493 68.6571L85.5195 59.0654L87.1955 56.5413L101.525 66.133L99.8493 68.6571Z" fill="white"/>
<path d="M79.1912 53.0074C85.5224 43.4722 82.9562 30.5891 73.4592 24.2323C63.9623 17.8755 51.131 20.4522 44.7997 29.9874C38.4684 39.5226 41.0347 52.4056 50.5317 58.7624C60.0286 65.1193 72.8599 62.5426 79.1912 53.0074Z" fill="#CA163A"/>
<path d="M44.7997 29.9874C41.6357 34.7525 42.9197 41.1982 47.6657 44.3749C52.4117 47.5517 58.8314 46.2626 61.9954 41.4974C65.1594 36.7322 71.5792 35.4431 76.3252 38.6199C81.0712 41.7966 82.3552 48.2422 79.1912 53.0074C72.8631 62.5377 60.0237 65.116 50.5317 58.7625C41.0396 52.4089 38.4717 39.5177 44.7997 29.9874Z" fill="#0E4896"/>
<path fill-rule="evenodd" clip-rule="evenodd" d="M93.5952 7.87598L105.059 25.1411L102.042 27.1604L90.5784 9.89527L93.5952 7.87598ZM89.2963 10.7536L100.76 28.0185L97.7434 30.0379L86.2795 12.7729L89.2963 10.7536ZM84.9973 13.6311L96.4611 30.896L93.4443 32.9153L81.9805 15.6504L84.9973 13.6311ZM30.5441 50.0794L42.0079 67.3445L38.9911 69.3638L27.5273 52.0987L30.5441 50.0794ZM26.2451 52.957L37.7089 70.222L34.6922 72.2413L23.2284 54.9763L26.2451 52.957ZM21.9465 55.8345L33.4103 73.0996L30.3935 75.1189L18.9297 57.8538L21.9465 55.8345Z" fill="black"/>
<path d="M28.3281 64.034L32.6271 61.1567L28.3281 64.034ZM86.3578 25.1916L91.379 21.8306L86.3578 25.1916ZM95.6779 18.9532L99.9768 16.0757L95.6779 18.9532Z" fill="black"/>
<path fill-rule="evenodd" clip-rule="evenodd" d="M100.813 17.3379L96.514 20.2153L94.838 17.6912L99.137 14.8137L100.813 17.3379ZM92.2151 23.0928L87.1939 26.4537L85.5179 23.9296L90.5391 20.5687L92.2151 23.0928ZM33.4631 62.4189L29.1642 65.2962L27.4883 62.7721L31.7872 59.8947L33.4631 62.4189Z" fill="white"/>
</g>
<defs>
<clipPath id="clip0_2022_870">
<rect width="124" height="83" fill="white"/>
</clipPath>
</defs>
</svg>
